<svg version="1.1" id="Camada_1" xmlns="http://www.w3.org/2000/svg" x="0" y="0" viewBox="0 0 349.4 72.7" style="enable-background:new 0 0 349.4 72.7" xml:space="preserve"><path class="st0" d="M119 58.5V1.6h19.7c3.7 0 6.9.4 9.6 1.1s4.8 1.7 6.5 3c1.7 1.3 2.9 2.9 3.7 4.8.8 1.9 1.2 4 1.2 6.3 0 1.3-.2 2.6-.6 3.8-.4 1.2-1 2.4-1.8 3.4s-1.9 2-3.2 2.9c-1.3.9-2.8 1.6-4.5 2.2 7.8 1.8 11.7 6 11.7 12.7 0 2.4-.5 4.6-1.4 6.7-.9 2-2.3 3.8-4 5.3-1.8 1.5-3.9 2.6-6.5 3.5-2.6.8-5.5 1.3-8.8 1.3H119zm10.6-32.3h8.5c3.6 0 6.3-.7 8.2-2 1.9-1.3 2.8-3.4 2.8-6.3 0-3-.8-5.1-2.5-6.3-1.7-1.3-4.3-1.9-7.9-1.9h-9.1v16.5zm0 7.4v16.7h10.8c2 0 3.6-.2 4.9-.7 1.3-.5 2.4-1.1 3.2-1.9.8-.8 1.4-1.7 1.7-2.8.4-1 .5-2.2.5-3.3 0-1.2-.2-2.3-.6-3.3-.4-1-1-1.8-1.9-2.5-.8-.7-1.9-1.2-3.2-1.6-1.3-.4-2.9-.6-4.8-.6h-10.6zM186.4 17.5c2.5 0 4.9.4 7 1.2 2.1.8 4 2 5.5 3.6s2.8 3.5 3.6 5.8c.9 2.3 1.3 4.9 1.3 7.8 0 .7 0 1.3-.1 1.8s-.2.9-.4 1.1-.4.5-.7.6c-.3.1-.7.2-1.1.2h-25c.3 4.1 1.4 7.2 3.3 9.1 1.9 1.9 4.5 2.9 7.7 2.9 1.6 0 2.9-.2 4.1-.6 1.1-.4 2.1-.8 3-1.2.9-.4 1.6-.9 2.2-1.2.6-.4 1.3-.6 1.9-.6.4 0 .7.1 1 .2.3.2.5.4.7.7l2.8 3.5c-1.1 1.3-2.3 2.3-3.6 3.2-1.3.9-2.7 1.5-4.2 2s-2.9.9-4.5 1.1c-1.5.2-3 .3-4.4.3-2.8 0-5.4-.5-7.8-1.4-2.4-.9-4.5-2.3-6.3-4.1-1.8-1.8-3.2-4.1-4.2-6.8s-1.5-5.8-1.5-9.4c0-2.8.4-5.3 1.3-7.8s2.2-4.5 3.8-6.3c1.7-1.8 3.7-3.2 6.1-4.3 2.8-.9 5.5-1.4 8.5-1.4zm.2 7c-2.8 0-5.1.8-6.7 2.4-1.6 1.6-2.6 3.9-3.1 6.8h18.3c0-1.3-.2-2.4-.5-3.6-.3-1.1-.9-2.1-1.6-2.9-.7-.8-1.6-1.5-2.7-2-1-.5-2.2-.7-3.7-.7zM243.5 58.5h-4.4c-.9 0-1.6-.1-2.2-.4-.5-.3-.9-.8-1.2-1.7l-.9-2.9c-1 .9-2 1.7-3 2.4s-2 1.3-3.1 1.8-2.2.8-3.3 1.1-2.5.4-3.9.4c-1.7 0-3.3-.2-4.7-.7-1.4-.5-2.7-1.2-3.7-2.1s-1.8-2.1-2.4-3.4c-.6-1.4-.9-3-.9-4.8 0-1.5.4-3 1.2-4.5.8-1.5 2.1-2.8 4-4 1.9-1.2 4.3-2.2 7.4-3 3.1-.8 6.9-1.2 11.5-1.2v-2.4c0-2.7-.6-4.7-1.7-6.1-1.1-1.3-2.8-2-5-2-1.6 0-2.9.2-3.9.6-1.1.4-2 .8-2.7 1.2-.8.5-1.5.9-2.1 1.2-.7.4-1.4.6-2.2.6-.7 0-1.2-.2-1.7-.5s-.9-.8-1.1-1.3l-1.8-3.1c4.6-4.3 10.3-6.4 16.8-6.4 2.4 0 4.5.4 6.3 1.2 1.9.8 3.4 1.9 4.7 3.2 1.3 1.4 2.3 3 2.9 4.9.7 1.9 1 4 1 6.3v25.6zm-18.9-6c1 0 1.9-.1 2.8-.3.8-.2 1.6-.5 2.4-.8.7-.4 1.5-.8 2.2-1.3.7-.5 1.4-1.2 2.1-1.9v-6.8c-2.8 0-5.2.2-7.1.5s-3.4.8-4.6 1.4c-1.2.6-2 1.2-2.5 1.9s-.7 1.5-.7 2.4c0 1.7.5 2.9 1.5 3.7.9.8 2.3 1.2 3.9 1.2zM267 17.4c1.7 0 3.4.2 4.9.5s2.9.9 4.2 1.6h11.6v3.6c0 .6-.2 1.1-.5 1.4-.3.3-.9.6-1.6.7l-3.6.7c.3.7.5 1.4.6 2.2.1.8.2 1.6.2 2.4 0 2-.4 3.8-1.2 5.4-.8 1.6-1.9 3-3.3 4.1-1.4 1.1-3.1 2-5 2.6-1.9.6-4 .9-6.3.9-1.5 0-3-.1-4.5-.4-1.3.8-1.9 1.6-1.9 2.6 0 .8.4 1.4 1.1 1.8.7.4 1.7.7 3 .8 1.2.2 2.6.2 4.2.2 1.5 0 3.1.1 4.8.2s3.2.4 4.8.7c1.5.3 2.9.8 4.2 1.6 1.2.7 2.2 1.7 3 2.9.7 1.2 1.1 2.8 1.1 4.7 0 1.8-.4 3.5-1.3 5.2-.9 1.7-2.2 3.2-3.8 4.5-1.7 1.3-3.7 2.4-6.1 3.2-2.4.8-5.2 1.2-8.3 1.2-3.1 0-5.7-.3-8-.9-2.3-.6-4.1-1.4-5.6-2.4s-2.6-2.1-3.3-3.4c-.7-1.3-1.1-2.6-1.1-4 0-1.9.6-3.5 1.7-4.8s2.8-2.3 4.8-3.1c-1-.6-1.8-1.3-2.4-2.2-.6-.9-.9-2.1-.9-3.6 0-.6.1-1.2.3-1.9.2-.6.5-1.3 1-1.9.4-.6 1-1.2 1.6-1.8.7-.6 1.4-1.1 2.3-1.5-2-1.1-3.7-2.6-4.8-4.4-1.2-1.8-1.8-4-1.8-6.5 0-2 .4-3.8 1.2-5.4.8-1.6 1.9-3 3.3-4.1 1.4-1.1 3.1-2 5.1-2.6 1.9-.5 4-.8 6.3-.8zm10.7 42.8c0-.8-.2-1.5-.7-2-.5-.5-1.1-.9-1.9-1.2-.8-.3-1.8-.5-2.9-.6-1.1-.1-2.2-.2-3.5-.2h-3.8c-1.3 0-2.6-.1-3.8-.4-1.1.6-2 1.3-2.7 2.1-.7.8-1 1.8-1 2.9 0 .7.2 1.4.5 2 .4.6.9 1.1 1.7 1.6.8.4 1.8.8 3 1 1.2.2 2.7.4 4.5.4 1.8 0 3.4-.1 4.7-.4 1.3-.3 2.4-.7 3.2-1.2.9-.5 1.5-1.1 1.9-1.8.6-.6.8-1.4.8-2.2zM267 37.3c1.2 0 2.3-.2 3.2-.5.9-.3 1.6-.8 2.2-1.4.6-.6 1-1.3 1.3-2.1.3-.8.5-1.7.5-2.7 0-2-.6-3.6-1.8-4.7s-3-1.8-5.4-1.8c-2.4 0-4.2.6-5.4 1.8-1.2 1.2-1.8 2.8-1.8 4.7 0 .9.2 1.8.5 2.6s.7 1.5 1.3 2.1 1.3 1.1 2.2 1.4c1 .5 2.1.6 3.2.6zM304.2 0v58.5h-9.7V0h9.7zM331.9 17.5c2.5 0 4.9.4 7 1.2 2.1.8 4 2 5.5 3.6s2.8 3.5 3.6 5.8c.9 2.3 1.3 4.9 1.3 7.8 0 .7 0 1.3-.1 1.8s-.2.9-.4 1.1-.4.5-.7.6c-.3.1-.7.2-1.1.2h-25c.3 4.1 1.4 7.2 3.3 9.1 1.9 1.9 4.5 2.9 7.7 2.9 1.6 0 2.9-.2 4.1-.6 1.1-.4 2.1-.8 3-1.2.9-.4 1.6-.9 2.2-1.2.6-.4 1.3-.6 1.9-.6.4 0 .7.1 1 .2.3.2.5.4.7.7l2.8 3.5c-1.1 1.3-2.3 2.3-3.6 3.2-1.3.9-2.7 1.5-4.2 2s-2.9.9-4.5 1.1c-1.5.2-3 .3-4.4.3-2.8 0-5.4-.5-7.8-1.4-2.4-.9-4.5-2.3-6.3-4.1-1.8-1.8-3.2-4.1-4.2-6.8s-1.5-5.8-1.5-9.4c0-2.8.4-5.3 1.3-7.8s2.2-4.5 3.8-6.3c1.7-1.8 3.7-3.2 6.1-4.3 2.7-.9 5.4-1.4 8.5-1.4zm.2 7c-2.8 0-5.1.8-6.7 2.4-1.6 1.6-2.6 3.9-3.1 6.8h18.3c0-1.3-.2-2.4-.5-3.6-.3-1.1-.9-2.1-1.6-2.9-.7-.8-1.6-1.5-2.7-2-1-.5-2.3-.7-3.7-.7z"/><g><linearGradient id="SVGID_1_" gradientUnits="userSpaceOnUse" x1="47.079" y1="43.649" x2="71.942" y2="18.786"><stop offset="0" style="stop-color:#b94817"/><stop offset="1" style="stop-color:#cf8f18"/></linearGradient><path d="M45.6 15.7c10.4 7 25.1 17 35.7 24.1-2.4-.3-4.7-.4-7-.4-6.6 0-12.6 1.2-18.1 3.5-2.3-11.6-6.3-20.3-10.6-27.2m-11-13.4c-.7 0-1.4.3-1.9.8-.9 1-1 2.4-.1 3.4 6.7 8.5 15.8 20 19 40.6.1.8.7 1.6 1.4 2 .4.2.8.3 1.2.3.4 0 .9-.1 1.3-.3 6.4-3.4 13.1-4.5 18.8-4.5 2.7 0 5.3.2 7.4.6 7.5 1.1 12.8 3.4 12.9 3.5.4.2.7.2 1.1.2.9 0 1.8-.5 2.3-1.4.7-1.2.3-2.7-.8-3.5l-1.2-.8C78.6 31.6 38.2 4.2 36.1 2.8c-.5-.3-1-.5-1.5-.5z" style="fill:url(#SVGID_1_)"/><linearGradient id="SVGID_2_" gradientUnits="userSpaceOnUse" x1="18.433" y1="53.126" x2="43.917" y2="27.642"><stop offset="0" style="stop-color:#98b136"/><stop offset=".006" style="stop-color:#98b136"/><stop offset="1" style="stop-color:#74a680"/></linearGradient><path d="M13 14.8C23.4 21.9 41 33.7 65.1 50c-1-.2-2-.4-3.1-.5-3.4-.5-6.7-.7-10-.7-8.4 0-16.2 1.6-23.1 4.8-3.2-17.3-9.5-29.5-15.9-38.8M3.1 2.3c-.8 0-1.6.3-2.2 1-1 1.1-1.1 2.8-.2 4C8.9 17.7 20.2 32 24.2 57.4c.2 1 .8 1.8 1.7 2.3.4.2.9.3 1.4.3.5 0 1-.1 1.5-.4C36.7 55.3 45 54 52.2 54c3.4 0 6.5.3 9.2.7 9.2 1.4 15.9 4.3 15.9 4.3.4.2.8.3 1.3.3 1.1 0 2.1-.6 2.7-1.6.8-1.4.4-3.1-1-4l-4.4-3C30.4 20.2 6.6 4.1 4.8 2.8c-.6-.3-1.2-.5-1.7-.5z" style="fill:url(#SVGID_2_)"/></g></svg>
