<svg width="191px" height="40px" viewBox="0 0 191 40" version="1.1"><title>6F36603C-6B77-4A3F-B189-251DF9F85C33</title><defs><linearGradient x1="22.7886587%" y1="69.014015%" x2="60.2828651%" y2="42.3611584%" id="linearGradient-1"><stop stop-color="#D6480D" offset="0%"></stop><stop stop-color="#E59200" offset="100%"></stop></linearGradient><linearGradient x1="22.6820001%" y1="69.0909631%" x2="53.9494468%" y2="46.9247479%" id="linearGradient-2"><stop stop-color="#90B424" offset="0%"></stop><stop stop-color="#90B424" offset="1%"></stop><stop stop-color="#56A980" offset="100%"></stop></linearGradient></defs><g id="Landing-page" stroke="none" stroke-width="1" fill="none" fill-rule="evenodd"><g id="LP---3.0---On-development" transform="translate(-1027.000000, -5866.000000)" fill-rule="nonzero"><g id="Group-19" transform="translate(0.000000, 1876.000000)"><g id="Group-15" transform="translate(0.000000, 900.000000)"><g id="Group-11" transform="translate(0.000000, 2818.000000)"><g id="Group-6" transform="translate(655.000000, 206.000000)"><g id="rtc-beagle" transform="translate(46.000000, 66.000000)"><g id="Group" transform="translate(326.963169, 0.000000)"><path d="M64.4923149,31.7194839 L64.4923149,0.856258065 L75.1467665,0.856258065 C76.8894962,0.823442001 78.6291346,1.01653275 80.3222504,1.43070968 C81.5918881,1.7358543 82.7889072,2.28832463 83.844831,3.05651613 C84.7282754,3.73016068 85.4227112,4.62060669 85.860831,5.64154839 C86.2999551,6.72545896 86.517398,7.88638302 86.5003149,9.05574194 C86.5024892,9.76181759 86.3946142,10.4639192 86.1805729,11.1367742 C85.9578788,11.8081794 85.622507,12.4367724 85.188831,12.9956129 C84.7048647,13.6034212 84.128883,14.1318615 83.4817342,14.5618065 C82.7159947,15.0676445 81.8869182,15.4703388 81.0159278,15.7594839 C85.2538633,16.7132903 87.372831,19.003871 87.372831,22.6312258 C87.3851034,23.878704 87.1320253,25.1145379 86.6303794,26.2567742 C86.1356578,27.3666036 85.3942678,28.3489453 84.4626375,29.1290323 C83.4222884,29.9820763 82.2258491,30.6244722 80.9400568,31.0203871 C79.3926944,31.4984147 77.7795014,31.7288708 76.1601858,31.7032258 L64.4923149,31.7194839 Z M70.236831,14.2149677 L74.8270246,14.2149677 C76.7725729,14.2149677 78.2520568,13.8627097 79.2654762,13.1310968 C80.2788955,12.3994839 80.7774762,11.2885161 80.7774762,9.73858065 C80.7774762,8.18864516 80.3222504,6.98554839 79.4117987,6.30270968 C78.5013471,5.61987097 77.0814762,5.27845161 75.1467665,5.27845161 L70.236831,5.27845161 L70.236831,14.2149677 Z M70.236831,18.1873548 L70.236831,27.2376774 L76.0626375,27.2376774 C76.9703228,27.2610549 77.875438,27.1309675 78.7397987,26.8529032 C79.3845576,26.6431901 79.9749265,26.2934105 80.4685729,25.8286452 C80.8963238,25.4113 81.2194222,24.8987992 81.4115407,24.3329032 C81.6046607,23.7472153 81.7016582,23.134118 81.6987665,22.5174194 C81.7074134,21.9028142 81.5988985,21.2921881 81.3790246,20.7181935 C81.1652562,20.1842295 80.8204602,19.7126977 80.3764439,19.3470968 C79.8579149,18.9433648 79.2621901,18.6501133 78.6259923,18.4854194 C77.7816475,18.270225 76.9121227,18.1699653 76.04096,18.1873548 L70.236831,18.1873548 Z" id="Shape" fill="#FFFFFF"></path><path d="M101.083799,9.47845161 C102.377907,9.46744628 103.663263,9.69146551 104.877347,10.1396129 C106.004227,10.5606888 107.026606,11.2207053 107.87425,12.0743226 C108.74268,12.961437 109.411546,14.0238616 109.836057,15.1904516 C110.327039,16.5390093 110.565848,17.9663575 110.540573,19.4012903 C110.544219,19.73255 110.527932,20.063729 110.491799,20.3930323 C110.468718,20.6116521 110.4024,20.8235011 110.296702,21.0162581 C110.208915,21.1596229 110.078025,21.2715427 109.922766,21.336 C109.731802,21.4046485 109.529416,21.4359263 109.326637,21.428129 L95.7782504,21.428129 C95.9372181,23.6789677 96.5423794,25.3300645 97.5937342,26.3814194 C98.7103409,27.4634044 100.224321,28.0360496 101.777476,27.963871 C102.524009,27.9780016 103.268178,27.8756098 103.983154,27.6603871 C104.543727,27.4889414 105.087833,27.2676718 105.60896,26.9992258 C106.069605,26.7607742 106.476057,26.5385806 106.822896,26.3380645 C107.129443,26.1532002 107.478495,26.0505379 107.836315,26.04 C108.024973,26.0375407 108.211258,26.0822489 108.37825,26.1700645 C108.536489,26.2608424 108.673278,26.3846925 108.779283,26.5331613 L110.318379,28.4516129 C109.753725,29.118838 109.092479,29.6978849 108.356573,30.1695484 C107.644134,30.6279878 106.880157,31.0008813 106.080444,31.2805161 C105.297942,31.5550049 104.490103,31.7510647 103.668831,31.8658065 C102.880745,31.9783903 102.085816,32.036335 101.289734,32.0392258 C99.8387556,32.0511015 98.3981512,31.7938507 97.04096,31.2805161 C95.7550901,30.7888385 94.5905045,30.0253879 93.6267665,29.0423226 C92.6210716,27.9879384 91.8442896,26.7369689 91.3452181,25.368 C90.7598166,23.7441337 90.4769512,22.0267369 90.5106375,20.3009032 C90.5015245,18.863603 90.7473965,17.4360773 91.236831,16.0846452 C91.6932369,14.8114639 92.400934,13.6430264 93.3178633,12.6487742 C94.2473068,11.656408 95.3731134,10.8683434 96.6236697,10.3347097 C98.034036,9.7401806 99.5535378,9.44846579 101.083799,9.47845161 Z M101.186766,13.272 C99.8583535,13.1958174 98.556483,13.6656654 97.5828955,14.5726452 C96.6445304,15.5931757 96.0609712,16.8895515 95.9191536,18.2686452 L105.820315,18.2686452 C105.824295,17.6136275 105.731154,16.9616379 105.543928,16.3339355 C105.369791,15.7517865 105.078397,15.2114173 104.68767,14.7460645 C104.291281,14.2800741 103.794812,13.9095755 103.235283,13.6621935 C102.581469,13.376524 101.872942,13.2377784 101.15967,13.2557419 L101.186766,13.272 Z" id="Shape" fill="#FFFFFF"></path><path d="M131.974121,31.7194839 L129.605863,31.7194839 C129.203002,31.7394309 128.801316,31.6613254 128.435283,31.491871 C128.107899,31.2897271 127.876993,30.9629364 127.795799,30.5868387 L127.324315,29.0314839 C126.805182,29.496182 126.262532,29.9339195 125.698508,30.3429677 C125.176657,30.710337 124.621443,31.0278615 124.040186,31.2913548 C123.460788,31.5514387 122.853462,31.7441831 122.230121,31.8658065 C121.526577,32.0012505 120.811336,32.0666025 120.094896,32.0609032 C119.226272,32.069204 118.361594,31.9430669 117.531541,31.6869677 C116.787983,31.4566305 116.101137,31.0725877 115.515541,30.5597419 C114.941463,30.0468846 114.492779,29.4090858 114.204057,28.6954839 C113.87438,27.872467 113.714024,26.9914291 113.732573,26.1050323 C113.741158,25.2469892 113.964749,24.4047937 114.382896,23.6554839 C114.90962,22.7605067 115.65566,22.0144668 116.550637,21.4877419 C117.799909,20.7354029 119.16092,20.1866083 120.582637,19.8619355 C122.633442,19.394767 124.733659,19.1800134 126.836573,19.2224516 L126.836573,17.9326452 C126.836573,16.4549677 126.52767,15.3710968 125.909863,14.6810323 C125.216586,13.9291931 124.220724,13.5308482 123.200186,13.5971613 C122.476963,13.5796082 121.755728,13.6802882 121.06496,13.8952258 C120.549492,14.0708478 120.052211,14.2958947 119.580057,14.5672258 C119.162766,14.8165161 118.772573,15.044129 118.420315,15.2392258 C118.061454,15.4411264 117.656062,15.5457438 117.244315,15.5427097 C116.916271,15.5525678 116.594203,15.4534701 116.328444,15.2609032 C116.074018,15.080752 115.861443,14.8478432 115.705218,14.5780645 L114.745992,12.8926452 C117.221252,10.6019045 120.489539,9.36220965 123.861347,9.43509677 C125.033391,9.41574531 126.197603,9.62942965 127.286379,10.0637419 C128.251917,10.4592548 129.122081,11.0559917 129.838896,11.8141935 C130.552293,12.5961147 131.09329,13.5193161 131.426766,14.523871 C131.799341,15.6230616 131.98259,16.7775305 131.968702,17.9380645 L131.974121,31.7194839 Z M121.731541,28.4299355 C122.23388,28.4338956 122.735235,28.38485 123.227283,28.2836129 C123.673109,28.188974 124.106089,28.0416153 124.517089,27.8446452 C124.932428,27.6425897 125.326408,27.3993026 125.693089,27.1184516 C126.095206,26.8051549 126.475446,26.4647493 126.831154,26.0996129 L126.831154,22.4307097 C125.540724,22.4097467 124.251052,22.5058825 122.977992,22.7179355 C122.122159,22.8576834 121.287923,23.1072256 120.495928,23.4603871 C119.964298,23.6857675 119.502274,24.0486523 119.157347,24.5117419 C118.899457,24.9005254 118.761855,25.3566856 118.761734,25.8232258 C118.688763,26.585007 118.997127,27.3336005 119.585476,27.8229677 C120.218384,28.2520815 120.9731,28.4649987 121.73696,28.4299355 L121.731541,28.4299355 Z" id="Shape" fill="#FFFFFF"></path><path d="M144.747541,9.42411048 C145.637108,9.41980445 146.524316,9.51616101 147.392186,9.71148387 C148.179281,9.89300307 148.939085,10.1772466 149.652057,10.5569032 L155.949347,10.5569032 L155.949347,12.5187097 C155.967172,12.7985145 155.875877,13.0743406 155.694637,13.2882581 C155.453132,13.5076041 155.14695,13.6426284 154.822121,13.6730323 L152.854896,14.036129 C153.000649,14.4153938 153.111307,14.8072289 153.185476,15.2067097 C153.267165,15.6372121 153.307092,16.0745966 153.304702,16.5127742 C153.319639,17.5274175 153.096927,18.5314772 152.654379,19.4446452 C152.227364,20.3114104 151.614967,21.0736691 150.860573,21.6774194 C150.052274,22.3132007 149.1337,22.7945336 148.150896,23.0972903 C147.048687,23.4368626 145.900836,23.6050191 144.747541,23.595871 C143.93792,23.5985924 143.130048,23.5205283 142.335928,23.3628387 C141.653089,23.780129 141.30625,24.2461935 141.30625,24.7610323 C141.292426,25.1806307 141.534732,25.5666038 141.918637,25.7365161 C142.430679,25.9778681 142.980827,26.1282419 143.544444,26.1809032 C144.292715,26.2680162 145.045582,26.3096411 145.798896,26.3055484 C146.638896,26.3055484 147.495154,26.3434839 148.378508,26.4139355 C149.247397,26.4822672 150.110906,26.6071773 150.963541,26.787871 C151.753364,26.9484312 152.512559,27.2338153 153.212573,27.6332903 C153.878436,28.0139738 154.437597,28.5563601 154.838379,29.2103226 C155.271011,29.9913418 155.48096,30.87613 155.445347,31.7682581 C155.441134,32.7554496 155.195548,33.7266309 154.729992,34.5971613 C154.221088,35.5479537 153.515339,36.3793333 152.659799,37.035871 C151.661883,37.800392 150.537447,38.3837047 149.337734,38.7592258 C147.888471,39.2160401 146.375315,39.4374329 144.855928,39.4149677 C143.396181,39.4382495 141.939382,39.2761805 140.520444,38.9326452 C139.443952,38.6752988 138.416918,38.2432491 137.480186,37.6536774 C136.740746,37.1893237 136.122213,36.5559307 135.675541,35.8056774 C135.289677,35.148085 135.084054,34.4003637 135.079412,33.6379355 C135.049231,32.6895989 135.384917,31.765977 136.01696,31.0583226 C136.736495,30.2999775 137.629053,29.7272533 138.61825,29.3891613 C138.093137,29.1049108 137.646359,28.6953641 137.317605,28.1969032 C136.96919,27.6116424 136.799644,26.9372224 136.829863,26.2567742 C136.831788,25.9104272 136.888489,25.5665648 136.997863,25.2379355 C137.126502,24.8680778 137.309122,24.5192735 137.539799,24.2028387 C137.790774,23.8424147 138.087736,23.5163034 138.423154,23.2327742 C138.807228,22.9096364 139.229475,22.6348116 139.680444,22.4144516 C138.619514,21.8545344 137.720095,21.0316222 137.068315,20.0245161 C136.420642,18.9736616 136.091239,17.7576924 136.119928,16.5236129 C136.081793,14.5065792 136.995288,12.5892419 138.585734,11.348129 C139.40392,10.7027543 140.338563,10.220714 141.338766,9.92825806 C142.443552,9.59129196 143.592513,9.42141378 144.747541,9.42411048 Z M150.529992,32.6245161 C150.54893,32.2267327 150.410734,31.8374478 150.145218,31.5406452 C149.854953,31.244103 149.495534,31.0243546 149.099283,30.9011613 C148.597189,30.7358724 148.079748,30.6214906 147.554766,30.5597419 C146.93062,30.4864828 146.30268,30.4502903 145.67425,30.4513548 L143.625734,30.4513548 C142.939681,30.4545631 142.255672,30.3763386 141.588057,30.2183226 C141.034619,30.5066473 140.544479,30.9028134 140.146508,31.3834839 C139.788452,31.817784 139.596379,32.365191 139.604573,32.928 C139.602357,33.3091008 139.703492,33.6836745 139.897218,34.011871 C140.118519,34.3783757 140.435034,34.6780348 140.813089,34.8789677 C141.32366,35.1427883 141.872147,35.3256173 142.438896,35.4209032 C143.248764,35.5673133 144.070971,35.6344692 144.893863,35.6214194 C145.746667,35.633279 146.598414,35.5570031 147.435541,35.3938065 C148.051202,35.2750898 148.645138,35.0631005 149.196831,34.7651613 C149.611264,34.5375574 149.960236,34.207247 150.21025,33.8059355 C150.414638,33.4492799 150.524687,33.0463895 150.529992,32.6353548 L150.529992,32.6245161 Z M144.747541,20.2629677 C145.327735,20.2751358 145.905554,20.1852528 146.454637,19.9974194 C146.903527,19.8401101 147.313689,19.5888398 147.657734,19.2603871 C147.981929,18.9422808 148.230159,18.5551161 148.383928,18.1277419 C148.550793,17.6619289 148.633373,17.1701223 148.627799,16.6753548 C148.677514,15.721176 148.325759,14.789714 147.657734,14.1065806 C145.923871,12.8352613 143.565791,12.8352613 141.831928,14.1065806 C141.166174,14.7911603 140.814809,15.7215923 140.861863,16.6753548 C140.85713,17.1629895 140.939723,17.6475341 141.105734,18.1060645 C141.260701,18.5360215 141.508665,18.9264714 141.831928,19.2495484 C142.177031,19.5845897 142.591409,19.8398759 143.045863,19.9974194 C143.593284,20.1844086 144.169175,20.274277 144.747541,20.2629677 L144.747541,20.2629677 Z" id="Shape" fill="#FFFFFF"></path><polygon id="Path" fill="#FFFFFF" points="164.869605 0 164.869605 31.7194839 159.612831 31.7194839 159.612831 0"></polygon><path d="M179.875799,9.47845161 C181.169946,9.46696462 182.455389,9.69099886 183.669347,10.1396129 C184.796227,10.5606888 185.818606,11.2207053 186.66625,12.0743226 C187.534673,12.9624685 188.205128,14.0244843 188.633476,15.1904516 C189.121852,16.5396941 189.360581,17.9665582 189.337992,19.4012903 C189.340159,19.7326666 189.322061,20.0638652 189.283799,20.3930323 C189.260718,20.6116521 189.1944,20.8235011 189.088702,21.0162581 C189.000915,21.1596229 188.870025,21.2715427 188.714766,21.336 C188.524008,21.4054535 188.321463,21.4367559 188.118637,21.428129 L174.57025,21.428129 C174.725605,23.6789677 175.330766,25.3300645 176.385734,26.3814194 C177.502694,27.4628477 179.016424,28.0353985 180.569476,27.963871 C181.316009,27.9780016 182.060178,27.8756098 182.775154,27.6603871 C183.335727,27.4889414 183.879833,27.2676718 184.40096,26.9992258 C184.861605,26.7607742 185.268057,26.5385806 185.614896,26.3380645 C185.921738,26.153872 186.27061,26.0512626 186.628315,26.04 C186.816973,26.0375407 187.003258,26.0822489 187.17025,26.1700645 C187.331178,26.2591851 187.47007,26.383262 187.576702,26.5331613 L189.110379,28.4516129 C188.546783,29.1198774 187.88537,29.6990707 187.148573,30.1695484 C186.436134,30.6279878 185.672157,31.0008813 184.872444,31.2805161 C184.090126,31.5556277 183.282224,31.7517028 182.460831,31.8658065 C181.672745,31.9783903 180.877816,32.036335 180.081734,32.0392258 C178.632479,32.0515617 177.193567,31.7942849 175.838379,31.2805161 C174.55018,30.7902953 173.38353,30.0267036 172.418766,29.0423226 C171.413072,27.9879384 170.63629,26.7369689 170.137218,25.368 C169.554411,23.7434597 169.271624,22.0265434 169.302637,20.3009032 C169.293524,18.863603 169.539397,17.4360773 170.028831,16.0846452 C170.487228,14.812413 171.194697,13.6443514 172.109863,12.6487742 C173.040047,11.6548239 174.167971,10.8665691 175.421089,10.3347097 C176.829403,9.7396835 178.347246,9.44793253 179.875799,9.47845161 Z M179.984186,13.272 C178.653931,13.1943132 177.349811,13.6642663 176.374896,14.5726452 C175.43653,15.5931757 174.852971,16.8895515 174.711154,18.2686452 L184.612315,18.2686452 C184.616295,17.6136275 184.523154,16.9616379 184.335928,16.3339355 C184.163696,15.7521075 183.874135,15.2117154 183.485089,14.7460645 C183.087684,14.2811579 182.591482,13.9108575 182.032702,13.6621935 C181.386861,13.3815359 180.688256,13.2429237 179.984186,13.2557419 L179.984186,13.272 Z" id="Shape" fill="#FFFFFF"></path><path d="M24.7196697,8.48670968 L44.0667665,21.5690323 C42.8082185,21.4130936 41.5413867,21.3334641 40.2732181,21.3305806 C36.9095735,21.292585 33.5735835,21.9417108 30.4696052,23.2381935 C29.4893983,18.0089488 27.5470817,13.0070702 24.7413471,8.48670968 M18.7800568,1.26270968 C18.230019,1.26565594 17.7295971,1.58135511 17.4900789,2.076513 C17.2505606,2.57167089 17.3136972,3.15997503 17.652831,3.59303226 C21.27296,8.17780645 26.2316697,14.4317419 27.9496052,25.5956129 C28.0154421,26.0617739 28.3047607,26.4664152 28.7245729,26.6794839 C28.9240373,26.7756732 29.1426107,26.8258065 29.3640568,26.8258065 C29.602538,26.8258065 29.837212,26.7659925 30.0468955,26.6523871 C33.1980997,25.0092317 36.7089004,24.176697 40.2623794,24.2299355 C41.6136083,24.231917 42.962928,24.3315312 44.2997987,24.528 C46.6923439,24.8697514 49.0344432,25.5012265 51.2745084,26.4085161 C51.9532457,26.7094819 52.7494957,26.4434654 53.1110271,25.7949596 C53.4725585,25.1464539 53.2801665,24.3292855 52.6672826,23.9101935 L52.0223794,23.4766452 L19.5712826,1.53367742 C19.3341363,1.36894 19.0525469,1.28011651 18.7637987,1.27896774 L18.7800568,1.26270968 Z" id="Shape" fill="url(#linearGradient-1)"></path><path d="M7.06341165,8.03148387 L35.2982504,27.123871 C34.7563149,27.0209032 34.2143794,26.9233548 33.6182504,26.8420645 C31.8238589,26.5776424 30.0126632,26.4436139 28.1988955,26.4410323 C23.8904802,26.3868561 19.6220594,27.2727198 15.6910246,29.0369032 C14.367848,21.4927111 11.4223119,14.3257945 7.0579923,8.03148387 M1.67115359,1.24640182 C1.02779684,1.24148059 0.43962403,1.60907958 0.162159186,2.18954997 C-0.115305659,2.77002035 -0.0319833646,3.458594 0.37592778,3.95612903 C4.85231488,9.62477419 10.9761858,17.3852903 13.1222504,31.155871 C13.1994481,31.6897933 13.5364633,32.1506513 14.0218633,32.3860645 C14.2492905,32.4983677 14.4998391,32.555901 14.7534762,32.5541071 C15.0275352,32.5551836 15.2975718,32.4881401 15.5392826,32.3589677 C19.4435345,30.319659 23.794614,29.2859051 28.1988955,29.3512258 C29.871187,29.3524572 31.5411629,29.4756225 33.1955407,29.7197419 C36.1577532,30.1402288 39.0571256,30.9228592 41.8285729,32.0500645 C42.0429001,32.1477238 42.275887,32.1976496 42.5114117,32.1963871 C43.2380554,32.1955758 43.8789489,31.720299 44.0907181,31.0251979 C44.3024872,30.3300967 44.0354597,29.5782132 43.432702,29.1723871 L41.0265084,27.5465806 C16.5039278,10.9687742 3.57334714,2.22735484 2.60870197,1.56619355 C2.33275539,1.3765219 2.00599817,1.27452831 1.67115359,1.27354839 L1.67115359,1.24640182 Z" id="Shape" fill="url(#linearGradient-2)"></path></g></g></g></g></g></g></g></g></svg>